<?xml version="1.0" encoding="UTF-8" standalone="no"?>
<svg xmlns="http://www.w3.org/2000/svg" version="1.1" 
xmlns:xlink="http://www.w3.org/1999/xlink" 
xmlns:svgjs="http://svgjs.dev/svgjs" width="1000" 
height="1000" 
viewBox="0 0 1000 1000">
<rect width="1000" height="1000" fill="#7a26c1">
</rect>
<g transform="matrix(0.7,0,0,0.7,149.57575757575756,282.1265587044535)">
<svg viewBox="0 0 396 247" data-background-color="#7a26c1" 
preserveAspectRatio="xMidYMid meet" height="623" 
width="1000" xmlns="http://www.w3.org/2000/svg" 
xmlns:xlink="http://www.w3.org/1999/xlink">
<g id="tight-bounds" transform="matrix(1,0,0,1,0.2400000000000091,-0.09999999999999432)">
<svg viewBox="0 0 395.52 247.2" height="247.2" width="395.52"><g><svg>
</svg></g><g><svg viewBox="0 0 395.52 247.2" height="247.2" width="395.52">
<g transform="matrix(1,0,0,1,146.0154580645161,47.215199999999996)">
<svg viewBox="0 0 103.48908387096775 152.7696" height="152.7696" width="103.48908387096775"><g>
<svg viewBox="0 0 103.48908387096775 152.7696" height="152.7696" width="103.48908387096775"><g>
<svg viewBox="0 0 103.48908387096775 152.7696" height="152.7696" width="103.48908387096775"><g>
<svg viewBox="0 0 103.48908387096775 152.7696" height="152.7696" width="103.48908387096775"><g id="textblocktransform">
<svg viewBox="0 0 103.48908387096775 152.7696" height="152.7696" width="103.48908387096775" id="textblock"><g>
<svg viewBox="0 0 103.48908387096775 152.7696" height="152.7696" width="103.48908387096775"><g transform="matrix(1,0,0,1,0,0)">
<svg width="103.48908387096775" viewBox="3.950000047683716 -34.099998474121094 23.099998474121094 34.099998474121094" height="152.7696" data-palette-color="#ffffff">
<path d="M27.05 0L23.1 0 14.45-15.05 7.7-15.05 7.7 0 3.95 0 3.95-34.1 15.35-34.1Q18.45-34.1 20.8-32.9 23.15-31.7 24.4-29.53 25.65-27.35 25.65-24.55L25.65-24.55Q25.65-21.15 23.6-18.73 21.55-16.3 18.15-15.45L18.15-15.45 27.05 0ZM7.7-31L7.7-18.15 14.85-18.15Q18.15-18.15 19.93-19.9 21.7-21.65 21.7-24.55L21.7-24.55Q21.7-27.45 19.93-29.23 18.15-31 14.85-31L14.85-31 7.7-31Z" opacity="1" transform="matrix(1,0,0,1,0,0)" fill="#ffffff" class="wordmark-text-0" data-fill-palette-color="primary" id="text-0"></path></svg></g></svg></g></svg></g></svg></g></svg></g></svg></g></svg></g><path d="M67.203 41.215L67.203 0 314.403 0 314.403 247.2 67.203 247.2 67.203 205.985 80.98 205.985 80.98 233.423 300.626 233.423 300.626 13.777 80.98 13.777 80.98 41.215Z" fill="#ffffff" stroke="transparent" data-fill-palette-color="primary"></path></svg></g><defs></defs></svg><rect width="395.52" height="247.2" fill="none" stroke="none" visibility="hidden"></rect></g></svg></g></svg>